<svg xmlns="http://www.w3.org/2000/svg" viewBox="0 0 429.53 98.37"><defs><style>.cls-1{fill:#004d97;}.cls-2{fill:#d9dadb;}.cls-3{fill:#e2001a;}.cls-4{fill:#fff;}</style></defs><title>Ministerstvo zivotnehoprostredia SR logo</title><g id="text"><path class="cls-1" d="M104.09,21.1V8.17L97.4,21.1H94.76L88.26,8.39V21.1h-3V1.7h3.21l7.65,15.53L104.09,1.7h3V21.1Z" transform="translate(-1.36 -1.45)"/><path class="cls-1" d="M116.43,1.7V21.1h-3V1.7Z" transform="translate(-1.36 -1.45)"/><path class="cls-1" d="M142.09,1.7V21.1h-2.4L125.81,6.66V21.1h-3V1.7h2.42l13.85,14.47V1.7Z" transform="translate(-1.36 -1.45)"/><path class="cls-1" d="M151.46,1.7V21.1h-3V1.7Z" transform="translate(-1.36 -1.45)"/><path class="cls-1" d="M157.56,16.56a6.65,6.65,0,0,0,4.32,2.07A2.79,2.79,0,0,0,165,15.82c0-3.36-8.1-2.89-8.1-8.81a5.57,5.57,0,0,1,5.68-5.55,6.11,6.11,0,0,1,4,1.33V6.56a5.21,5.21,0,0,0-4-2.37,2.56,2.56,0,0,0-2.72,2.69c0,3.63,8.17,3,8.17,8.81,0,3.63-3,5.75-6.27,5.75a6.43,6.43,0,0,1-4.22-1.51Z" transform="translate(-1.36 -1.45)"/><path class="cls-1" d="M169.41,1.7H185V4.46H178.7V21.1h-3V4.46h-6.32Z" transform="translate(-1.36 -1.45)"/><path class="cls-1" d="M197.16,21.1H188.1V1.7h9.06V4.46h-6.1V10h4.32v2.74h-4.32v5.6h6.1Z" transform="translate(-1.36 -1.45)"/><path class="cls-1" d="M208.35,13.7a12.7,12.7,0,0,1-1.7.12h-1V21.1h-3V1.7h4.07c4.47,0,7.38,1.83,7.38,6a5.46,5.46,0,0,1-2.76,4.91L219,21.1h-4.17Zm-2.72-2.59h1.14c2.57,0,4.17-1.06,4.17-3.41s-1.56-3.23-4.1-3.23h-1.21Z" transform="translate(-1.36 -1.45)"/><path class="cls-1" d="M220.44,16.56a6.65,6.65,0,0,0,4.32,2.07,2.79,2.79,0,0,0,3.11-2.81c0-3.36-8.1-2.89-8.1-8.81a5.57,5.57,0,0,1,5.68-5.55,6.11,6.11,0,0,1,4,1.33V6.56a5.21,5.21,0,0,0-4-2.37,2.56,2.56,0,0,0-2.72,2.69c0,3.63,8.17,3,8.17,8.81,0,3.63-3,5.75-6.27,5.75a6.43,6.43,0,0,1-4.22-1.51Z" transform="translate(-1.36 -1.45)"/><path class="cls-1" d="M232.17,1.7h15.6V4.46h-6.32V21.1h-3V4.46h-6.32Z" transform="translate(-1.36 -1.45)"/><path class="cls-1" d="M257.43,17.69l5.8-16h3.18L258.88,21.1h-3.11l-7-19.41h3.18Z" transform="translate(-1.36 -1.45)"/><path class="cls-1" d="M278.58,1.57c5.7,0,9.78,3.68,9.9,9.53a9.9,9.9,0,0,1-10,10.37c-6.89-.07-9.85-5.36-9.78-10A9.85,9.85,0,0,1,278.58,1.57Zm-.1,17.16c4.35-.07,7-3.38,6.94-7.5s-2.74-6.89-6.84-6.91c-5,0-6.86,4.32-6.84,7.18C271.67,14.83,273.52,18.68,278.48,18.73Z" transform="translate(-1.36 -1.45)"/><path class="cls-1" d="M84.34,45.2H97v2.2L88,61.86h8.91V64.6H84.31V62.4L93.18,48H84.34Zm10-5.14-2.64,3.78H89.15l-2.54-3.78h2.44l1.43,2.15,1.41-2.15Z" transform="translate(-1.36 -1.45)"/><path class="cls-1" d="M104.88,45.2V64.6h-3V45.2Z" transform="translate(-1.36 -1.45)"/><path class="cls-1" d="M117.25,61.19l5.8-16h3.18L118.7,64.6h-3.11l-7-19.4h3.18Z" transform="translate(-1.36 -1.45)"/><path class="cls-1" d="M138.41,45.07c5.7,0,9.78,3.68,9.9,9.53a9.9,9.9,0,0,1-10,10.37c-6.89-.07-9.85-5.36-9.78-10A9.85,9.85,0,0,1,138.41,45.07Zm-.1,17.16c4.35-.07,7-3.38,6.94-7.5s-2.74-6.89-6.84-6.91c-5,0-6.86,4.32-6.84,7.18C131.49,58.33,133.34,62.18,138.31,62.23Z" transform="translate(-1.36 -1.45)"/><path class="cls-1" d="M150.55,45.2h15.6V48h-6.32V64.6h-3V48h-6.32Z" transform="translate(-1.36 -1.45)"/><path class="cls-1" d="M189.34,45.2V64.6h-2.4L173.07,50.16V64.6h-3V45.2h2.42l13.85,14.47V45.2Z" transform="translate(-1.36 -1.45)"/><path class="cls-1" d="M204.69,64.6h-9.06V45.2h9.06V48h-6.1v5.56h4.32v2.74h-4.32v5.6h6.1Zm-5.21-20.29L197.9,42.8l3.55-3.68,1.65,1.73Z" transform="translate(-1.36 -1.45)"/><path class="cls-1" d="M223,45.2h3V64.6h-3V56.28h-9.85V64.6h-3V45.2h3v8.34H223Z" transform="translate(-1.36 -1.45)"/><path class="cls-1" d="M240.86,45.07c5.7,0,9.78,3.68,9.9,9.53a9.9,9.9,0,0,1-10,10.37c-6.89-.07-9.85-5.36-9.78-10A9.85,9.85,0,0,1,240.86,45.07Zm-.1,17.16c4.35-.07,7-3.38,6.94-7.5s-2.74-6.89-6.84-6.91c-5,0-6.86,4.32-6.84,7.18C233.95,58.33,235.8,62.18,240.76,62.23Z" transform="translate(-1.36 -1.45)"/><path class="cls-1" d="M266.34,57.32V64.6h-3V45.2h4.07c4.47,0,7.38,1.83,7.38,6,0,3.93-3.31,6.07-7.48,6.07Zm0-2.72h1.14c2.57,0,4.17-1.06,4.17-3.41S270.09,48,267.55,48h-1.21Z" transform="translate(-1.36 -1.45)"/><path class="cls-1" d="M285.2,57.2a12.7,12.7,0,0,1-1.7.12h-1V64.6h-3V45.2h4.07c4.47,0,7.38,1.83,7.38,6a5.46,5.46,0,0,1-2.76,4.91l7.68,8.44h-4.17Zm-2.72-2.59h1.14c2.57,0,4.17-1.06,4.17-3.41S286.24,48,283.69,48h-1.21Z" transform="translate(-1.36 -1.45)"/><path class="cls-1" d="M306.58,45.07c5.7,0,9.78,3.68,9.9,9.53a9.9,9.9,0,0,1-10,10.37c-6.89-.07-9.85-5.36-9.78-10A9.85,9.85,0,0,1,306.58,45.07Zm-.1,17.16c4.35-.07,7-3.38,6.94-7.5s-2.74-6.89-6.84-6.91c-5,0-6.86,4.32-6.84,7.18C299.67,58.33,301.52,62.18,306.48,62.23Z" transform="translate(-1.36 -1.45)"/><path class="cls-1" d="M320.63,60.06a6.65,6.65,0,0,0,4.32,2.07,2.79,2.79,0,0,0,3.11-2.81c0-3.36-8.1-2.89-8.1-8.81a5.57,5.57,0,0,1,5.68-5.55,6.11,6.11,0,0,1,4,1.33v3.78a5.21,5.21,0,0,0-4-2.37,2.56,2.56,0,0,0-2.72,2.69c0,3.63,8.17,3,8.17,8.81,0,3.63-3,5.75-6.27,5.75a6.43,6.43,0,0,1-4.22-1.51Z" transform="translate(-1.36 -1.45)"/><path class="cls-1" d="M333.59,45.2h15.6V48h-6.32V64.6h-3V48h-6.32Z" transform="translate(-1.36 -1.45)"/><path class="cls-1" d="M358.82,57.2a12.7,12.7,0,0,1-1.7.12h-1V64.6h-3V45.2h4.07c4.47,0,7.38,1.83,7.38,6a5.46,5.46,0,0,1-2.76,4.91l7.68,8.44h-4.17ZM356.1,54.6h1.14c2.57,0,4.17-1.06,4.17-3.41S359.85,48,357.31,48H356.1Z" transform="translate(-1.36 -1.45)"/><path class="cls-1" d="M380.67,64.6h-9.06V45.2h9.06V48h-6.1v5.56h4.32v2.74h-4.32v5.6h6.1Z" transform="translate(-1.36 -1.45)"/><path class="cls-1" d="M386.12,64.6V45.2h3.46c7.93,0,12.69,2.69,12.69,9.78,0,6.72-4.76,9.63-12.64,9.63Zm3-2.74h1.18c5.63,0,8.89-1.8,8.89-7.06,0-5.06-3.38-6.84-9-6.84h-1.11Z" transform="translate(-1.36 -1.45)"/><path class="cls-1" d="M409.67,45.2V64.6h-3V45.2Z" transform="translate(-1.36 -1.45)"/><path class="cls-1" d="M423.7,45.2l7.18,19.4H427.7L425.4,58h-6.52l-2.32,6.59h-3.18l7.43-19.4Zm-3.85,10.07h4.59l-2.27-6.54Z" transform="translate(-1.36 -1.45)"/><path class="cls-1" d="M85,88.81a6.65,6.65,0,0,0,4.32,2.07,2.79,2.79,0,0,0,3.11-2.81c0-3.36-8.1-2.89-8.1-8.81A5.57,5.57,0,0,1,90,73.7,6.11,6.11,0,0,1,94,75v3.78a5.21,5.21,0,0,0-4-2.37,2.56,2.56,0,0,0-2.72,2.69c0,3.63,8.17,3,8.17,8.81,0,3.63-3,5.75-6.27,5.75A6.43,6.43,0,0,1,85,92.19Z" transform="translate(-1.36 -1.45)"/><path class="cls-1" d="M110.66,93.35H100.41V73.95h3V90.61h7.28Z" transform="translate(-1.36 -1.45)"/><path class="cls-1" d="M122.26,73.82c5.7,0,9.78,3.68,9.9,9.53a9.9,9.9,0,0,1-10,10.37c-6.89-.07-9.85-5.36-9.78-10A9.85,9.85,0,0,1,122.26,73.82ZM122.16,91c4.35-.07,7-3.38,6.94-7.51s-2.74-6.89-6.84-6.91c-5,0-6.86,4.32-6.84,7.18C115.35,87.08,117.2,90.93,122.16,91Z" transform="translate(-1.36 -1.45)"/><path class="cls-1" d="M142.58,89.95l5.8-16h3.18L144,93.35h-3.11l-7-19.4h3.18Z" transform="translate(-1.36 -1.45)"/><path class="cls-1" d="M164.2,93.35h-9.06V73.95h9.06v2.76h-6.1v5.56h4.32V85h-4.32v5.6h6.1Z" transform="translate(-1.36 -1.45)"/><path class="cls-1" d="M188.7,73.95v19.4h-2.4L172.42,78.91V93.35h-3V73.95h2.42l13.85,14.47V73.95Z" transform="translate(-1.36 -1.45)"/><path class="cls-1" d="M194.3,88.81a6.65,6.65,0,0,0,4.32,2.07,2.79,2.79,0,0,0,3.11-2.81c0-3.36-8.1-2.89-8.1-8.81a5.57,5.57,0,0,1,5.68-5.55,6.11,6.11,0,0,1,4,1.33v3.78a5.21,5.21,0,0,0-4-2.37,2.56,2.56,0,0,0-2.72,2.69c0,3.63,8.17,3,8.17,8.81,0,3.63-3,5.75-6.27,5.75a6.43,6.43,0,0,1-4.22-1.51Z" transform="translate(-1.36 -1.45)"/><path class="cls-1" d="M212.69,73.95V83.5l8.47-9.55h4l-9,9.75L225,93.35h-4l-8.34-9.26v9.26h-3V73.95Z" transform="translate(-1.36 -1.45)"/><path class="cls-1" d="M238,93.35h-9.06V73.95H238v2.76h-6.1v5.56h4.32V85H231.9v5.6H238Z" transform="translate(-1.36 -1.45)"/><path class="cls-1" d="M241.33,97.6a7.68,7.68,0,0,0,2.59-6V73.95h3V91.57a10.26,10.26,0,0,1-3.68,8.25Z" transform="translate(-1.36 -1.45)"/><path class="cls-1" d="M267.4,85.95a12.53,12.53,0,0,1-1.7.12h-1v7.28h-3V73.95h4.07c4.47,0,7.38,1.83,7.38,6a5.45,5.45,0,0,1-2.77,4.91l7.68,8.44h-4.17Zm-2.72-2.59h1.14c2.57,0,4.17-1.06,4.17-3.41s-1.56-3.23-4.1-3.23h-1.21Z" transform="translate(-1.36 -1.45)"/><path class="cls-1" d="M289,93.35h-9.06V73.95H289v2.76h-6.1v5.56h4.32V85H282.9v5.6H289Z" transform="translate(-1.36 -1.45)"/><path class="cls-1" d="M297,86.07v7.28h-3V73.95h4.07c4.47,0,7.38,1.83,7.38,6,0,3.93-3.31,6.07-7.48,6.07Zm0-2.71h1.14c2.57,0,4.17-1.06,4.17-3.41s-1.56-3.23-4.1-3.23H297Z" transform="translate(-1.36 -1.45)"/><path class="cls-1" d="M311.89,73.95v9.28c0,4,1.8,7.8,6.27,7.8,3.7,0,6.25-2.94,6.25-7.78V73.95h3v9.28c0,6.29-3.8,10.49-9.21,10.49-6.42,0-9.23-4.37-9.23-10.47V73.95Z" transform="translate(-1.36 -1.45)"/><path class="cls-1" d="M332.8,93.35V73.95h2.76c4.34,0,7.65,1.36,7.65,5.28a3.49,3.49,0,0,1-2.84,3.58c2.79.52,4.64,2,4.64,4.86,0,4.77-4.57,5.68-8.54,5.68ZM336.57,82c2.3,0,3.63-.79,3.63-2.59,0-2.2-2.17-2.69-4-2.69h-.42V82Zm.37,2.74h-1.19v5.9h1.09c3.09,0,5.09-.39,5.09-2.89S339.81,84.71,336.94,84.71Z" transform="translate(-1.36 -1.45)"/><path class="cls-1" d="M360.2,93.35H350V73.95h3V90.61h7.28Z" transform="translate(-1.36 -1.45)"/><path class="cls-1" d="M366.54,73.95v19.4h-3V73.95Z" transform="translate(-1.36 -1.45)"/><path class="cls-1" d="M376.17,73.95V83.5l8.47-9.55h4l-9,9.75,8.91,9.65h-4l-8.34-9.26v9.26h-3V73.95Z" transform="translate(-1.36 -1.45)"/><path class="cls-1" d="M398.94,93.35h-3v-7.7l-6.39-11.7H393l4.64,8.76,4.44-8.76h3.41L398.94,85.7Z" transform="translate(-1.36 -1.45)"/></g><g id="linka"><path class="cls-2" d="M152.6,32.81H85.27v-3H152.6Z" transform="translate(-1.36 -1.45)"/><path class="cls-1" d="M219.9,32.81H152.57v-3H219.9Z" transform="translate(-1.36 -1.45)"/><path class="cls-3" d="M287.19,32.81H219.86v-3h67.33Z" transform="translate(-1.36 -1.45)"/></g><g id="znak"><path class="cls-3" d="M33.62,82.38C20.35,76,1.36,63.3,1.36,38.19S2.56,1.67,2.56,1.67H64.68s1.2,11.42,1.2,36.52S46.89,76,33.62,82.38" transform="translate(-1.36 -1.45)"/><path class="cls-4" d="M36.46,31.61c3.59.06,10.61.2,16.85-1.89,0,0-.16,2.24-.16,4.84s.16,4.84.16,4.84c-5.73-1.92-12.8-2-16.85-1.9V51.35H30.78V37.49c-4.05-.05-11.13,0-16.85,1.9,0,0,.16-2.23.16-4.84s-.16-4.84-.16-4.84c6.24,2.09,13.26,2,16.85,1.89V22.9a39.88,39.88,0,0,0-13.33,1.91s.16-2.24.16-4.84-.16-4.84-.16-4.84a39.91,39.91,0,0,0,13.32,1.91A77.54,77.54,0,0,0,29,4.59s3.31.26,4.63.26,4.63-.26,4.63-.26a77.52,77.52,0,0,0-1.77,12.46,39.92,39.92,0,0,0,13.32-1.91s-.16,2.24-.16,4.84.16,4.84.16,4.84A39.87,39.87,0,0,0,36.46,22.9v8.71" transform="translate(-1.36 -1.45)"/><path class="cls-1" d="M51.33,54.73a8.2,8.2,0,0,0-7.44,4.4s-3.58-9.27-10.27-9.27-10.26,9.27-10.26,9.27a8.2,8.2,0,0,0-7.44-4.4C12.22,54.73,9.5,58,7.77,61,14.49,71.73,25.2,78.33,33.62,82.38,42,78.33,52.75,71.73,59.47,61,57.74,58,55,54.73,51.33,54.73Z" transform="translate(-1.36 -1.45)"/></g></svg>